<svg width="100" height="60" viewBox="0 0 100 60" fill="none" xmlns="http://www.w3.org/2000/svg">
<g opacity="0.8">
<path opacity="0.8" d="M13.4324 45.2917V46.1111L14.107 46.9305H85.8927L87.2419 45.2917H13.4324Z" fill="#F56122"/>
<path opacity="0.8" d="M10.6945 41.9939V42.8338L11.4087 43.6736H88.5913L90 41.9939H10.6945Z" fill="#F56122"/>
<path opacity="0.8" d="M92.6787 38.6753H7.95651V39.5561L8.69064 40.437H91.3097L92.6787 38.7777V38.6753Z" fill="#F56122"/>
<path opacity="0.8" d="M95.3374 35.3772H5.23816V36.299L5.99213 37.1799H94.008L95.3374 35.6025V35.3772Z" fill="#F56122"/>
<path opacity="0.8" d="M18.8887 51.929V52.6664L19.5237 53.4244H80.476L81.726 51.929H18.8887Z" fill="#F56122"/>
<path opacity="0.8" d="M16.1704 48.6104V49.3888L16.8251 50.1877H83.1743L84.4839 48.6104H16.1704Z" fill="#F56122"/>
<path opacity="0.8" d="M21.6266 55.2271V55.944L22.2219 56.661H77.7774L78.9679 55.2271H21.6266Z" fill="#F56122"/>
<path opacity="0.8" d="M25 59.324V60H75L75.5556 59.324H25Z" fill="#F56122"/>
<path opacity="0.8" d="M0 30.0103L0.555556 30.6658H99.4444L100 30.0103L98.9683 28.7812H1.03175L0 30.0103Z" fill="#F56122"/>
<path opacity="0.8" d="M84.0675 10.8773L82.6786 9.21802H17.3215L15.9326 10.8773H84.0675Z" fill="#F56122"/>
<path opacity="0.8" d="M5.23816 24.0695H95.0596L93.5517 22.2668H6.44848L5.23816 23.7008V24.0695Z" fill="#F56122"/>
<path opacity="0.8" d="M88.7101 17.4325V16.4697L88.1347 15.7732H11.8648L11.468 16.2239V17.4325H88.7101Z" fill="#F56122"/>
<path opacity="0.8" d="M98.0161 32.0791H2.50024V33.0009L3.27405 33.9227H96.7264L98.0161 32.3864V32.0791Z" fill="#F56122"/>
<path opacity="0.8" d="M2.95605 27.3676H97.4203V26.9169L96.2695 25.5239H3.72986L2.95605 26.4457V27.3676Z" fill="#F56122"/>
<path opacity="0.8" d="M7.95651 20.7512H92.3017L90.8533 19.01H9.16683L7.95651 20.4439V20.7512Z" fill="#F56122"/>
<path opacity="0.8" d="M86.8058 14.1756L85.3971 12.4753H14.6034L13.1947 14.1756H86.8058Z" fill="#F56122"/>
<path opacity="0.8" d="M75.6746 0.819388L75 0H25L24.3254 0.819388H75.6746Z" fill="#F56122"/>
<path opacity="0.8" d="M21.4282 4.30165H78.5711L77.2219 2.68335H22.7774L21.4282 4.30165Z" fill="#F56122"/>
<path opacity="0.8" d="M81.3291 7.57923L79.9601 5.96094H20.0394L18.6902 7.57923H81.3291Z" fill="#F56122"/>
</g>
</svg>
