<svg width="610" height="151" viewBox="0 0 610 151" fill="none" xmlns="http://www.w3.org/2000/svg">
<g opacity="0.2">
<path d="M497.754 90.3957L525.314 60.5971H580.44L608 90.3957L580.44 120.194H525.314L497.754 90.3957ZM359.801 60.5971H414.928L442.487 30.7986L414.92 1H359.794L332.234 30.7986L359.801 60.5971ZM359.801 120.194H414.928L442.487 90.3957L414.92 60.5971H359.794L332.234 90.3957L359.801 120.194ZM442.244 90.3957H497.37L524.93 60.5971L497.37 30.7986H442.244L414.684 60.5971L442.244 90.3957ZM277.44 90.3957H332.567L360.127 60.5971L332.567 30.7986H277.44L249.881 60.5971L277.44 90.3957ZM277.44 150H332.567L360.127 120.201L332.567 90.4029H277.44L249.881 120.201L277.44 150ZM111.92 90.3957H167.047L194.607 60.5971L167.047 30.7986H111.92L84.3609 60.5971L111.92 90.3957ZM111.92 150H167.047L194.607 120.201L167.047 90.4029H111.92L84.3609 120.201L111.92 150ZM194.363 120.194H249.489L277.049 90.3957L249.489 60.5971H194.363L166.803 90.3957L194.363 120.194ZM29.5596 120.194H84.6861L112.246 90.3957L84.6861 60.5971H29.5596L2 90.3957L29.5596 120.194Z" stroke="url(#paint0_linear)" stroke-width="1.621" stroke-miterlimit="10"/>
<path d="M360.127 117.033C361.93 117.033 363.386 118.452 363.386 120.194C363.386 121.936 361.922 123.355 360.127 123.355C358.331 123.355 356.867 121.936 356.867 120.194C356.867 118.452 358.323 117.033 360.127 117.033ZM494.495 90.3957C494.495 92.1448 495.959 93.5569 497.754 93.5569C499.55 93.5569 501.014 92.1376 501.014 90.3957C501.014 88.6538 499.55 87.2345 497.754 87.2345C495.959 87.2345 494.495 88.6538 494.495 90.3957ZM521.663 60.5971C521.663 62.3462 523.126 63.7584 524.922 63.7584C526.718 63.7584 528.182 62.339 528.182 60.5971C528.182 58.8481 526.718 57.4359 524.922 57.4359C523.126 57.4359 521.663 58.8481 521.663 60.5971ZM328.975 30.7986C328.975 32.5476 330.438 33.9598 332.234 33.9598C334.038 33.9598 335.494 32.5405 335.494 30.7986C335.494 29.0567 334.03 27.6374 332.234 27.6374C330.438 27.6374 328.975 29.0495 328.975 30.7986ZM274.181 90.3957C274.181 92.1448 275.645 93.5569 277.44 93.5569C279.236 93.5569 280.7 92.1376 280.7 90.3957C280.7 88.6538 279.236 87.2345 277.44 87.2345C275.645 87.2345 274.181 88.6538 274.181 90.3957ZM246.614 120.194C246.614 121.943 248.078 123.355 249.874 123.355C251.669 123.355 253.133 121.936 253.133 120.194C253.133 118.452 251.669 117.033 249.874 117.033C248.078 117.033 246.614 118.452 246.614 120.194ZM191.34 120.194C191.34 121.943 192.803 123.355 194.599 123.355C196.395 123.355 197.858 121.936 197.858 120.194C197.858 118.452 196.395 117.033 194.599 117.033C192.803 117.033 191.34 118.452 191.34 120.194ZM163.536 90.3957C163.536 92.1448 165 93.5569 166.796 93.5569C168.599 93.5569 170.055 92.1376 170.055 90.3957C170.055 88.6538 168.592 87.2345 166.796 87.2345C165 87.2345 163.536 88.6538 163.536 90.3957ZM108.986 90.3957C108.986 92.1448 110.45 93.5569 112.246 93.5569C114.042 93.5569 115.505 92.1376 115.505 90.3957C115.505 88.6538 114.042 87.2345 112.246 87.2345C110.45 87.2345 108.986 88.6538 108.986 90.3957ZM81.0942 60.5971C81.0942 62.3462 82.5576 63.7584 84.3535 63.7584C86.1568 63.7584 87.6128 62.339 87.6128 60.5971C87.6128 58.8481 86.1494 57.4359 84.3535 57.4359C82.5576 57.4359 81.0942 58.8481 81.0942 60.5971ZM81.0942 120.194C81.0942 121.943 82.5576 123.355 84.3535 123.355C86.1568 123.355 87.6128 121.936 87.6128 120.194C87.6128 118.452 86.1494 117.033 84.3535 117.033C82.5576 117.033 81.0942 118.452 81.0942 120.194ZM191.34 60.5971C191.34 62.3462 192.803 63.7584 194.599 63.7584C196.395 63.7584 197.858 62.339 197.858 60.5971C197.858 58.8481 196.395 57.4359 194.599 57.4359C192.803 57.4359 191.34 58.8481 191.34 60.5971ZM246.614 60.5971C246.614 62.3462 248.078 63.7584 249.874 63.7584C251.669 63.7584 253.133 62.339 253.133 60.5971C253.133 58.8481 251.669 57.4359 249.874 57.4359C248.078 57.4359 246.614 58.8481 246.614 60.5971ZM328.975 90.3957C328.975 92.1448 330.438 93.5569 332.234 93.5569C334.038 93.5569 335.494 92.1376 335.494 90.3957C335.494 88.6538 334.03 87.2345 332.234 87.2345C330.438 87.2345 328.975 88.6538 328.975 90.3957ZM439.221 90.3957C439.221 92.1448 440.684 93.5569 442.48 93.5569C444.276 93.5569 445.739 92.1376 445.739 90.3957C445.739 88.6538 444.276 87.2345 442.48 87.2345C440.684 87.2345 439.221 88.6538 439.221 90.3957ZM356.86 60.5971C356.86 62.3462 358.323 63.7584 360.119 63.7584C361.915 63.7584 363.378 62.339 363.378 60.5971C363.378 58.8481 361.915 57.4359 360.119 57.4359C358.323 57.4359 356.86 58.8481 356.86 60.5971ZM439.221 30.7986C439.221 32.5476 440.684 33.9598 442.48 33.9598C444.276 33.9598 445.739 32.5405 445.739 30.7986C445.739 29.0567 444.276 27.6374 442.48 27.6374C440.684 27.6374 439.221 29.0495 439.221 30.7986ZM413.258 60.5971C413.258 62.3462 414.721 63.7584 416.517 63.7584C418.313 63.7584 419.776 62.339 419.776 60.5971C419.776 58.8481 418.313 57.4359 416.517 57.4359C414.721 57.4359 413.258 58.8481 413.258 60.5971Z" fill="url(#paint1_linear)"/>
</g>
<defs>
<linearGradient id="paint0_linear" x1="608.81" y1="75.4984" x2="1.19443" y2="75.4984" gradientUnits="userSpaceOnUse">
<stop stop-color="#F15627"/>
<stop offset="1" stop-color="#FAA21E"/>
</linearGradient>
<linearGradient id="paint1_linear" x1="528.189" y1="75.4984" x2="81.0956" y2="75.4984" gradientUnits="userSpaceOnUse">
<stop stop-color="#F15627"/>
<stop offset="1" stop-color="#FAA21E"/>
</linearGradient>
</defs>
</svg>
