<svg width="75" height="18" viewBox="0 0 75 18" fill="none" xmlns="http://www.w3.org/2000/svg">
<path d="M10.0823 5.79915C11.047 6.33133 11.8431 7.12329 12.3803 8.08512C12.9492 9.12395 13.2354 10.2939 13.2105 11.478C13.2343 12.6658 12.9482 13.8393 12.3803 14.8829C11.8462 15.8501 11.0496 16.6468 10.0823 17.1809C9.0683 17.7339 7.92862 18.0157 6.7737 17.999C5.87701 18.0105 4.98909 17.8215 4.17491 17.4456C3.39818 17.0835 2.72716 16.5284 2.22582 15.8334V17.8546H0V0H2.31003V7.02636C2.81214 6.3624 3.47448 5.83667 4.23506 5.49836C5.03071 5.14763 5.8922 4.97123 6.76167 4.98101C7.92065 4.96222 9.06474 5.24409 10.0823 5.79915ZM8.77091 15.4243C9.42154 15.0479 9.95473 14.498 10.3109 13.8361C10.6826 13.1099 10.8764 12.3058 10.8764 11.49C10.8764 10.6742 10.6826 9.87009 10.3109 9.14389C9.95606 8.48412 9.42228 7.93783 8.77091 7.56777C8.09606 7.20446 7.34161 7.01429 6.57518 7.01429C5.80875 7.01429 5.05429 7.20446 4.37944 7.56777C3.72647 7.93032 3.1918 8.47334 2.83942 9.13186C2.47734 9.8588 2.28888 10.6598 2.28888 11.472C2.28888 12.2841 2.47734 13.0851 2.83942 13.8121C3.19126 14.4772 3.7255 15.0281 4.37944 15.4002C5.05182 15.7712 5.80724 15.9658 6.57518 15.9658C7.34312 15.9658 8.09854 15.7712 8.77091 15.4002V15.4243ZM16.4109 0.0120294H18.7209V17.8667H16.4109V0.0120294ZM25.1698 17.1568C24.1806 16.6163 23.3603 15.8126 22.7996 14.8348C22.2391 13.8047 21.9455 12.6507 21.9455 11.478C21.9455 10.3053 22.2391 9.15129 22.7996 8.12122C23.3581 7.14474 24.1792 6.34443 25.1698 5.81118C26.2195 5.2482 27.3956 4.96246 28.5867 4.98101C29.7741 4.9609 30.9467 5.2468 31.9916 5.81118C32.9767 6.34753 33.7932 7.14736 34.3497 8.12122C34.9102 9.15129 35.2038 10.3053 35.2038 11.478C35.2038 12.6507 34.9102 13.8047 34.3497 14.8348C33.7912 15.8101 32.9755 16.6134 31.9916 17.1568C30.9492 17.7289 29.7756 18.0192 28.5867 17.999C27.3942 18.0175 26.2171 17.7274 25.1698 17.1568ZM30.7884 15.4123C31.4386 15.0338 31.9683 14.479 32.3164 13.8121C32.6805 13.0836 32.87 12.2803 32.87 11.466C32.87 10.6516 32.6805 9.84833 32.3164 9.11982C31.968 8.45933 31.4378 7.9124 30.7884 7.54371C30.1114 7.18038 29.355 6.99024 28.5867 6.99024C27.8183 6.99024 27.0619 7.18038 26.3849 7.54371C25.7336 7.91377 25.1998 8.46006 24.8449 9.11982C24.4732 9.84603 24.2794 10.6502 24.2794 11.466C24.2794 12.2817 24.4732 13.0859 24.8449 13.8121C25.2011 14.474 25.7343 15.0238 26.3849 15.4002C27.0595 15.7712 27.8168 15.9657 28.5867 15.9657C29.3565 15.9657 30.1139 15.7712 30.7884 15.4002V15.4123ZM40.4497 17.1568C39.4605 16.6163 38.6402 15.8126 38.0795 14.8348C37.519 13.8047 37.2254 12.6507 37.2254 11.478C37.2254 10.3053 37.519 9.15129 38.0795 8.12122C38.6348 7.14638 39.4516 6.34624 40.4376 5.81118C41.4874 5.2482 42.6635 4.96246 43.8546 4.98101C45.042 4.9609 46.2146 5.2468 47.2595 5.81118C48.2446 6.34753 49.0611 7.14736 49.6176 8.12122C50.1781 9.15129 50.4717 10.3053 50.4717 11.478C50.4717 12.6507 50.1781 13.8047 49.6176 14.8348C49.0591 15.8101 48.2434 16.6134 47.2595 17.1568C46.217 17.7289 45.0435 18.0192 43.8546 17.999C42.662 18.0175 41.485 17.7274 40.4376 17.1568H40.4497ZM46.0684 15.4123C46.7185 15.0338 47.2482 14.479 47.5963 13.8121C47.9604 13.0836 48.1499 12.2803 48.1499 11.466C48.1499 10.6516 47.9604 9.84833 47.5963 9.11982C47.248 8.45933 46.7177 7.9124 46.0684 7.54371C45.3913 7.18038 44.6349 6.99024 43.8666 6.99024C43.0983 6.99024 42.3419 7.18038 41.6648 7.54371C41.0135 7.91377 40.4797 8.46006 40.1248 9.11982C39.7531 9.84603 39.5593 10.6502 39.5593 11.466C39.5593 12.2817 39.7531 13.0859 40.1248 13.8121C40.481 14.474 41.0142 15.0238 41.6648 15.4002C42.3394 15.7712 43.0968 15.9657 43.8666 15.9657C44.6364 15.9657 45.3938 15.7712 46.0684 15.4002V15.4123ZM73.4399 6.38869C74.3783 7.31912 74.8475 8.69872 74.8475 10.5275V17.8667H72.5375V10.7802C72.5375 9.54493 72.2528 8.6145 71.6833 7.98887C71.1118 7.36323 70.2997 7.05042 69.2409 7.05042C68.7246 7.02477 68.2088 7.10912 67.7276 7.29787C67.2464 7.48662 66.8108 7.77547 66.4496 8.14528C65.7618 8.87719 65.4169 9.92393 65.4149 11.2855V17.8546H63.1169V10.7802C63.1169 9.54493 62.8321 8.6145 62.2627 7.98887C61.6912 7.36323 60.879 7.05042 59.8203 7.05042C59.304 7.02477 58.7882 7.10912 58.307 7.29787C57.8258 7.48662 57.3901 7.77547 57.029 8.14528C56.3372 8.87719 55.9923 9.92393 55.9943 11.2855V17.8546H53.6722V5.08929H55.886V6.99026C56.3489 6.33326 56.9808 5.81362 57.7148 5.48633C58.5253 5.12908 59.4039 4.95254 60.2895 4.96898C61.2076 4.95163 62.116 5.1581 62.9364 5.57055C63.6953 5.96066 64.3167 6.57362 64.7171 7.32714C65.2143 6.57543 65.9096 5.97583 66.7263 5.59461C67.632 5.16619 68.6242 4.95212 69.6259 4.96898C71.2381 4.977 72.5134 5.44623 73.4519 6.37666L73.4399 6.38869Z" fill="url(#paint0_linear)"/>
<defs>
<linearGradient id="paint0_linear" x1="0" y1="8.99951" x2="74.8596" y2="8.99951" gradientUnits="userSpaceOnUse">
<stop stop-color="#FAA21B"/>
<stop offset="1" stop-color="#EF4023"/>
</linearGradient>
</defs>
</svg>
