<svg width="24" height="24" viewBox="0 0 24 24" fill="none" xmlns="http://www.w3.org/2000/svg">
<g clip-path="url(#clip0)">
<path d="M15.7499 12.75C15.7499 13.7446 15.3549 14.6984 14.6516 15.4017C13.9483 16.1049 12.9945 16.5 11.9999 16.5C11.0054 16.5 10.0516 16.1049 9.34829 15.4017C8.64503 14.6984 8.24994 13.7446 8.24994 12.75C8.24994 11.7554 8.64503 10.8016 9.34829 10.0983C10.0516 9.39509 11.0054 9 11.9999 9C12.9945 9 13.9483 9.39509 14.6516 10.0983C15.3549 10.8016 15.7499 11.7554 15.7499 12.75Z" fill="white"/>
<path fill-rule="evenodd" clip-rule="evenodd" d="M2.99994 6C2.20429 6 1.44123 6.31607 0.878619 6.87868C0.31601 7.44129 -6.10352e-05 8.20435 -6.10352e-05 9L-6.10352e-05 18C-6.10352e-05 18.7956 0.31601 19.5587 0.878619 20.1213C1.44123 20.6839 2.20429 21 2.99994 21H20.9999C21.7956 21 22.5586 20.6839 23.1213 20.1213C23.6839 19.5587 23.9999 18.7956 23.9999 18V9C23.9999 8.20435 23.6839 7.44129 23.1213 6.87868C22.5586 6.31607 21.7956 6 20.9999 6H19.2419C18.4464 5.99983 17.6834 5.68365 17.1209 5.121L15.8789 3.879C15.3165 3.31635 14.5535 3.00017 13.7579 3H10.2419C9.44635 3.00017 8.68342 3.31635 8.12094 3.879L6.87894 5.121C6.31646 5.68365 5.55352 5.99983 4.75794 6H2.99994ZM3.74994 9C3.94885 9 4.13962 8.92098 4.28027 8.78033C4.42092 8.63968 4.49994 8.44891 4.49994 8.25C4.49994 8.05109 4.42092 7.86032 4.28027 7.71967C4.13962 7.57902 3.94885 7.5 3.74994 7.5C3.55103 7.5 3.36026 7.57902 3.21961 7.71967C3.07896 7.86032 2.99994 8.05109 2.99994 8.25C2.99994 8.44891 3.07896 8.63968 3.21961 8.78033C3.36026 8.92098 3.55103 9 3.74994 9ZM17.2499 12.75C17.2499 14.1424 16.6968 15.4777 15.7122 16.4623C14.7277 17.4469 13.3923 18 11.9999 18C10.6076 18 9.27219 17.4469 8.28763 16.4623C7.30306 15.4777 6.74994 14.1424 6.74994 12.75C6.74994 11.3576 7.30306 10.0223 8.28763 9.03769C9.27219 8.05312 10.6076 7.5 11.9999 7.5C13.3923 7.5 14.7277 8.05312 15.7122 9.03769C16.6968 10.0223 17.2499 11.3576 17.2499 12.75Z" fill="white"/>
</g>
<defs>
<clipPath id="clip0">
<rect width="24" height="24" fill="white"/>
</clipPath>
</defs>
</svg>
