<svg width="16" height="16" viewBox="0 0 16 16" fill="none" xmlns="http://www.w3.org/2000/svg">
<path d="M7.24701 11.4066L2.45101 5.9246C1.88501 5.2796 2.34501 4.2666 3.20401 4.2666H12.796C12.9883 4.26644 13.1765 4.32169 13.3381 4.42574C13.4998 4.5298 13.628 4.67824 13.7075 4.85329C13.7869 5.02835 13.8142 5.2226 13.7861 5.41278C13.758 5.60296 13.6757 5.78101 13.549 5.9256L8.75301 11.4056C8.65915 11.513 8.5434 11.5991 8.41352 11.6581C8.28365 11.7171 8.14265 11.7476 8.00001 11.7476C7.85737 11.7476 7.71638 11.7171 7.5865 11.6581C7.45663 11.5991 7.34087 11.513 7.24701 11.4056V11.4066Z" fill="#828282"/>
</svg>
