<svg width="16" height="16" viewBox="0 0 16 16" fill="none" xmlns="http://www.w3.org/2000/svg">
<path d="M7.24696 11.4066L2.45096 5.9246C1.88496 5.2796 2.34496 4.2666 3.20396 4.2666H12.796C12.9882 4.26644 13.1764 4.32169 13.3381 4.42574C13.4997 4.5298 13.628 4.67824 13.7074 4.85329C13.7869 5.02835 13.8142 5.2226 13.7861 5.41278C13.758 5.60296 13.6757 5.78101 13.549 5.9256L8.75296 11.4056C8.6591 11.513 8.54335 11.5991 8.41347 11.6581C8.2836 11.7171 8.1426 11.7476 7.99996 11.7476C7.85732 11.7476 7.71633 11.7171 7.58645 11.6581C7.45658 11.5991 7.34082 11.513 7.24696 11.4056V11.4066Z" fill="#F58023"/>
</svg>
